<mxfile host="app.diagrams.net" modified="2023-12-20T06:46:28.515Z" agent="Mozilla/5.0 (Windows NT 10.0; Win64; x64) AppleWebKit/537.36 (KHTML, like Gecko) Chrome/120.0.0.0 Safari/537.36" etag="YYnsEyCHf2L3KG5RV-1G" version="22.1.11" type="github">
  <diagram name="ページ1" id="RSF6c0jn3NAJ_vpGWxzO">
    <mxGraphModel dx="1050" dy="557" grid="1" gridSize="10" guides="1" tooltips="1" connect="1" arrows="1" fold="1" page="1" pageScale="1" pageWidth="827" pageHeight="1169" math="0" shadow="0">
      <root>
        <mxCell id="0" />
        <mxCell id="1" parent="0" />
        <mxCell id="BsprlBW5exiJ0rSOJqQj-10" style="edgeStyle=orthogonalEdgeStyle;rounded=0;orthogonalLoop=1;jettySize=auto;html=1;exitX=0;exitY=0;exitDx=70;exitDy=80;exitPerimeter=0;" edge="1" parent="1" source="BsprlBW5exiJ0rSOJqQj-5">
          <mxGeometry relative="1" as="geometry">
            <mxPoint x="430" y="1120" as="targetPoint" />
          </mxGeometry>
        </mxCell>
        <mxCell id="BsprlBW5exiJ0rSOJqQj-5" value="Stage Controller" style="shape=cube;whiteSpace=wrap;html=1;boundedLbl=1;backgroundOutline=1;darkOpacity=0.05;darkOpacity2=0.1;" vertex="1" parent="1">
          <mxGeometry x="360" y="40" width="120" height="80" as="geometry" />
        </mxCell>
        <mxCell id="BsprlBW5exiJ0rSOJqQj-11" style="edgeStyle=orthogonalEdgeStyle;rounded=0;orthogonalLoop=1;jettySize=auto;html=1;exitX=0;exitY=0;exitDx=70;exitDy=80;exitPerimeter=0;" edge="1" parent="1" source="BsprlBW5exiJ0rSOJqQj-6">
          <mxGeometry relative="1" as="geometry">
            <mxPoint x="670" y="1160" as="targetPoint" />
          </mxGeometry>
        </mxCell>
        <mxCell id="BsprlBW5exiJ0rSOJqQj-6" value="Detector" style="shape=cube;whiteSpace=wrap;html=1;boundedLbl=1;backgroundOutline=1;darkOpacity=0.05;darkOpacity2=0.1;" vertex="1" parent="1">
          <mxGeometry x="600" y="40" width="120" height="80" as="geometry" />
        </mxCell>
        <mxCell id="BsprlBW5exiJ0rSOJqQj-9" style="edgeStyle=orthogonalEdgeStyle;rounded=0;orthogonalLoop=1;jettySize=auto;html=1;exitX=0.5;exitY=1;exitDx=0;exitDy=0;" edge="1" parent="1" source="BsprlBW5exiJ0rSOJqQj-7">
          <mxGeometry relative="1" as="geometry">
            <mxPoint x="180" y="1160" as="targetPoint" />
            <Array as="points">
              <mxPoint x="180" y="230" />
              <mxPoint x="180" y="230" />
            </Array>
          </mxGeometry>
        </mxCell>
        <mxCell id="BsprlBW5exiJ0rSOJqQj-7" value="Scan System" style="rounded=0;whiteSpace=wrap;html=1;" vertex="1" parent="1">
          <mxGeometry x="120" y="40" width="120" height="80" as="geometry" />
        </mxCell>
        <mxCell id="BsprlBW5exiJ0rSOJqQj-12" value="" style="endArrow=classic;html=1;rounded=0;" edge="1" parent="1">
          <mxGeometry width="50" height="50" relative="1" as="geometry">
            <mxPoint x="180" y="200" as="sourcePoint" />
            <mxPoint x="430" y="200" as="targetPoint" />
          </mxGeometry>
        </mxCell>
        <mxCell id="BsprlBW5exiJ0rSOJqQj-13" value="" style="endArrow=classic;html=1;rounded=0;" edge="1" parent="1">
          <mxGeometry width="50" height="50" relative="1" as="geometry">
            <mxPoint x="180" y="240" as="sourcePoint" />
            <mxPoint x="670" y="240" as="targetPoint" />
          </mxGeometry>
        </mxCell>
        <mxCell id="BsprlBW5exiJ0rSOJqQj-14" value="initialize" style="text;html=1;align=center;verticalAlign=middle;resizable=0;points=[];autosize=1;strokeColor=none;fillColor=none;" vertex="1" parent="1">
          <mxGeometry x="180" y="170" width="70" height="30" as="geometry" />
        </mxCell>
        <mxCell id="BsprlBW5exiJ0rSOJqQj-17" value="initialize, cool down" style="text;html=1;align=center;verticalAlign=middle;resizable=0;points=[];autosize=1;strokeColor=none;fillColor=none;" vertex="1" parent="1">
          <mxGeometry x="180" y="210" width="130" height="30" as="geometry" />
        </mxCell>
        <mxCell id="BsprlBW5exiJ0rSOJqQj-18" value="" style="endArrow=classic;html=1;rounded=0;" edge="1" parent="1">
          <mxGeometry width="50" height="50" relative="1" as="geometry">
            <mxPoint x="670" y="280" as="sourcePoint" />
            <mxPoint x="180" y="280" as="targetPoint" />
          </mxGeometry>
        </mxCell>
        <mxCell id="BsprlBW5exiJ0rSOJqQj-19" value="finish cooling" style="text;html=1;align=center;verticalAlign=middle;resizable=0;points=[];autosize=1;strokeColor=none;fillColor=none;" vertex="1" parent="1">
          <mxGeometry x="580" y="250" width="90" height="30" as="geometry" />
        </mxCell>
        <mxCell id="BsprlBW5exiJ0rSOJqQj-20" value="go to start position" style="rounded=0;whiteSpace=wrap;html=1;" vertex="1" parent="1">
          <mxGeometry x="120" y="320" width="120" height="60" as="geometry" />
        </mxCell>
        <mxCell id="BsprlBW5exiJ0rSOJqQj-21" value="" style="endArrow=classic;html=1;rounded=0;" edge="1" parent="1">
          <mxGeometry width="50" height="50" relative="1" as="geometry">
            <mxPoint x="180" y="420" as="sourcePoint" />
            <mxPoint x="430" y="420" as="targetPoint" />
          </mxGeometry>
        </mxCell>
        <mxCell id="BsprlBW5exiJ0rSOJqQj-22" value="" style="endArrow=classic;html=1;rounded=0;" edge="1" parent="1">
          <mxGeometry width="50" height="50" relative="1" as="geometry">
            <mxPoint x="430" y="460" as="sourcePoint" />
            <mxPoint x="180" y="460" as="targetPoint" />
          </mxGeometry>
        </mxCell>
        <mxCell id="BsprlBW5exiJ0rSOJqQj-23" value="get position" style="text;html=1;align=center;verticalAlign=middle;resizable=0;points=[];autosize=1;strokeColor=none;fillColor=none;" vertex="1" parent="1">
          <mxGeometry x="180" y="390" width="80" height="30" as="geometry" />
        </mxCell>
        <mxCell id="BsprlBW5exiJ0rSOJqQj-24" value="position" style="text;html=1;align=center;verticalAlign=middle;resizable=0;points=[];autosize=1;strokeColor=none;fillColor=none;" vertex="1" parent="1">
          <mxGeometry x="370" y="430" width="60" height="30" as="geometry" />
        </mxCell>
        <mxCell id="BsprlBW5exiJ0rSOJqQj-25" value="go to goal position" style="rounded=0;whiteSpace=wrap;html=1;" vertex="1" parent="1">
          <mxGeometry x="120" y="500" width="120" height="60" as="geometry" />
        </mxCell>
        <mxCell id="BsprlBW5exiJ0rSOJqQj-26" value="" style="endArrow=classic;html=1;rounded=0;" edge="1" parent="1">
          <mxGeometry width="50" height="50" relative="1" as="geometry">
            <mxPoint x="180" y="600" as="sourcePoint" />
            <mxPoint x="430" y="600" as="targetPoint" />
          </mxGeometry>
        </mxCell>
        <mxCell id="BsprlBW5exiJ0rSOJqQj-27" value="" style="endArrow=classic;html=1;rounded=0;" edge="1" parent="1">
          <mxGeometry width="50" height="50" relative="1" as="geometry">
            <mxPoint x="430" y="640" as="sourcePoint" />
            <mxPoint x="180" y="640" as="targetPoint" />
          </mxGeometry>
        </mxCell>
        <mxCell id="BsprlBW5exiJ0rSOJqQj-28" value="get position" style="text;html=1;align=center;verticalAlign=middle;resizable=0;points=[];autosize=1;strokeColor=none;fillColor=none;" vertex="1" parent="1">
          <mxGeometry x="180" y="570" width="80" height="30" as="geometry" />
        </mxCell>
        <mxCell id="BsprlBW5exiJ0rSOJqQj-29" value="position" style="text;html=1;align=center;verticalAlign=middle;resizable=0;points=[];autosize=1;strokeColor=none;fillColor=none;" vertex="1" parent="1">
          <mxGeometry x="370" y="610" width="60" height="30" as="geometry" />
        </mxCell>
        <mxCell id="BsprlBW5exiJ0rSOJqQj-30" value="set acquisition condition" style="rounded=0;whiteSpace=wrap;html=1;" vertex="1" parent="1">
          <mxGeometry x="120" y="680" width="120" height="60" as="geometry" />
        </mxCell>
        <mxCell id="BsprlBW5exiJ0rSOJqQj-32" value="" style="endArrow=classic;html=1;rounded=0;" edge="1" parent="1">
          <mxGeometry width="50" height="50" relative="1" as="geometry">
            <mxPoint x="180" y="820" as="sourcePoint" />
            <mxPoint x="430" y="820" as="targetPoint" />
          </mxGeometry>
        </mxCell>
        <mxCell id="BsprlBW5exiJ0rSOJqQj-33" value="move to scanning point" style="text;html=1;align=center;verticalAlign=middle;resizable=0;points=[];autosize=1;strokeColor=none;fillColor=none;" vertex="1" parent="1">
          <mxGeometry x="180" y="790" width="150" height="30" as="geometry" />
        </mxCell>
        <mxCell id="BsprlBW5exiJ0rSOJqQj-36" value="" style="endArrow=classic;html=1;rounded=0;" edge="1" parent="1">
          <mxGeometry width="50" height="50" relative="1" as="geometry">
            <mxPoint x="180" y="860" as="sourcePoint" />
            <mxPoint x="670" y="860" as="targetPoint" />
          </mxGeometry>
        </mxCell>
        <mxCell id="BsprlBW5exiJ0rSOJqQj-37" value="prepare acquisition" style="text;html=1;align=center;verticalAlign=middle;resizable=0;points=[];autosize=1;strokeColor=none;fillColor=none;" vertex="1" parent="1">
          <mxGeometry x="180" y="830" width="120" height="30" as="geometry" />
        </mxCell>
        <mxCell id="BsprlBW5exiJ0rSOJqQj-38" value="" style="endArrow=classic;html=1;rounded=0;" edge="1" parent="1">
          <mxGeometry width="50" height="50" relative="1" as="geometry">
            <mxPoint x="180" y="900" as="sourcePoint" />
            <mxPoint x="670" y="900" as="targetPoint" />
          </mxGeometry>
        </mxCell>
        <mxCell id="BsprlBW5exiJ0rSOJqQj-39" value="start acquisition" style="text;html=1;align=center;verticalAlign=middle;resizable=0;points=[];autosize=1;strokeColor=none;fillColor=none;" vertex="1" parent="1">
          <mxGeometry x="180" y="870" width="110" height="30" as="geometry" />
        </mxCell>
        <mxCell id="BsprlBW5exiJ0rSOJqQj-40" value="" style="endArrow=classic;html=1;rounded=0;" edge="1" parent="1">
          <mxGeometry width="50" height="50" relative="1" as="geometry">
            <mxPoint x="670" y="940" as="sourcePoint" />
            <mxPoint x="180" y="940" as="targetPoint" />
          </mxGeometry>
        </mxCell>
        <mxCell id="BsprlBW5exiJ0rSOJqQj-41" value="finish acquisition" style="text;html=1;align=center;verticalAlign=middle;resizable=0;points=[];autosize=1;strokeColor=none;fillColor=none;" vertex="1" parent="1">
          <mxGeometry x="560" y="910" width="110" height="30" as="geometry" />
        </mxCell>
        <mxCell id="BsprlBW5exiJ0rSOJqQj-42" value="" style="rounded=0;whiteSpace=wrap;html=1;fillColor=none;" vertex="1" parent="1">
          <mxGeometry x="100" y="780" width="650" height="200" as="geometry" />
        </mxCell>
        <mxCell id="BsprlBW5exiJ0rSOJqQj-43" value="loop" style="text;html=1;align=center;verticalAlign=middle;resizable=0;points=[];autosize=1;strokeColor=none;fillColor=none;" vertex="1" parent="1">
          <mxGeometry x="100" y="750" width="50" height="30" as="geometry" />
        </mxCell>
        <mxCell id="BsprlBW5exiJ0rSOJqQj-44" value="save data" style="rounded=0;whiteSpace=wrap;html=1;" vertex="1" parent="1">
          <mxGeometry x="120" y="1020" width="120" height="60" as="geometry" />
        </mxCell>
        <mxCell id="BsprlBW5exiJ0rSOJqQj-45" value="" style="endArrow=classic;html=1;rounded=0;" edge="1" parent="1">
          <mxGeometry width="50" height="50" relative="1" as="geometry">
            <mxPoint x="180" y="1120" as="sourcePoint" />
            <mxPoint x="430" y="1120" as="targetPoint" />
          </mxGeometry>
        </mxCell>
        <mxCell id="BsprlBW5exiJ0rSOJqQj-46" value="finalize" style="text;html=1;align=center;verticalAlign=middle;resizable=0;points=[];autosize=1;strokeColor=none;fillColor=none;" vertex="1" parent="1">
          <mxGeometry x="180" y="1090" width="60" height="30" as="geometry" />
        </mxCell>
        <mxCell id="BsprlBW5exiJ0rSOJqQj-47" value="" style="endArrow=classic;html=1;rounded=0;" edge="1" parent="1">
          <mxGeometry width="50" height="50" relative="1" as="geometry">
            <mxPoint x="180" y="1160" as="sourcePoint" />
            <mxPoint x="670" y="1160" as="targetPoint" />
          </mxGeometry>
        </mxCell>
        <mxCell id="BsprlBW5exiJ0rSOJqQj-48" value="finalize" style="text;html=1;align=center;verticalAlign=middle;resizable=0;points=[];autosize=1;strokeColor=none;fillColor=none;" vertex="1" parent="1">
          <mxGeometry x="180" y="1130" width="60" height="30" as="geometry" />
        </mxCell>
      </root>
    </mxGraphModel>
  </diagram>
</mxfile>
